<svg id="Ebene_1" data-name="Ebene 1" xmlns="http://www.w3.org/2000/svg" viewBox="0 0 150.72 153.54"><defs><style>.cls-1{fill:none;stroke:#b1b1b1;stroke-width:4px;}.cls-2{fill:#b1b1b1;}.cls-3{fill:#1ea7ae;}.cls-4{fill:#fff;}</style></defs><title>Unbenannt-3</title><circle class="cls-1" cx="75.36" cy="75.36" r="73.36"/><path class="cls-2" d="M75.36,24.86a26.88,26.88,0,0,0-20,8.51A28.36,28.36,0,0,0,47.09,53.9a28.36,28.36,0,0,0,8.28,20.53,27.74,27.74,0,0,0,40,0,28.36,28.36,0,0,0,8.28-20.53,28.36,28.36,0,0,0-8.28-20.53,26.89,26.89,0,0,0-20-8.51m51.58,88.73a79.18,79.18,0,0,0-1-8.24,65.56,65.56,0,0,0-2-8.2,39.47,39.47,0,0,0-3.17-7.37,26.55,26.55,0,0,0-4.57-6.12,19.18,19.18,0,0,0-6.29-4,21.6,21.6,0,0,0-8.21-1.51,8.91,8.91,0,0,0-3.09,1.63q-2.43,1.63-5.48,3.63a34.34,34.34,0,0,1-8,3.63,30.52,30.52,0,0,1-19.66,0,34.28,34.28,0,0,1-8-3.63q-3.06-2-5.49-3.63A8.9,8.9,0,0,0,49,78.09a21.59,21.59,0,0,0-8.21,1.51,19.16,19.16,0,0,0-6.3,4,26.54,26.54,0,0,0-4.56,6.13,39.27,39.27,0,0,0-3.17,7.37,65.56,65.56,0,0,0-2,8.2,78.89,78.89,0,0,0-1,8.24q-0.26,3.82-.26,7.83c0,6,1.79,8,5.38,11.49S37.25,141,43.19,141l32.17,7.79L107.54,141c5.94,0,10.7-4.59,14.28-8.09s5.38-5.44,5.38-11.49q0-4-.26-7.83"/><path class="cls-3" d="M121.78,153.54a19.5,19.5,0,1,0-19.5-19.5,19.5,19.5,0,0,0,19.5,19.5"/><path class="cls-4" d="M115.12,133.22h5.1V128h2.09v5.25h5.1v2.09h-5.1v5.22h-2.09v-5.22h-5.1v-2.09Z"/></svg>